<svg width="308" height="43" viewBox="0 0 308 43" fill="none" xmlns="http://www.w3.org/2000/svg">
<path fill-rule="evenodd" clip-rule="evenodd" d="M18.1989 10.6281C18.2262 10.7232 18.2424 10.8428 18.2474 10.9867C18.2583 11.2985 18.1224 11.5314 17.8396 11.6853L16.9862 12.0033C16.5826 12.1375 16.2489 12.2092 15.985 12.2184C15.7692 12.2259 15.6004 12.2078 15.4788 12.164C15.2315 11.9565 14.9382 11.8107 14.599 11.7264C14.2599 11.6422 13.5614 11.5826 12.5035 11.5475C12.1934 11.6063 11.9184 11.6399 11.6785 11.6483C11.4387 11.6567 11.2472 11.6754 11.1041 11.7044C10.934 12.3347 10.7147 12.9307 10.4461 13.4925C10.3661 13.9515 10.2484 14.3639 10.0931 14.7295C9.94195 15.2151 9.87963 15.4934 9.90613 15.5646C9.83752 15.663 9.63102 16.2826 9.28662 17.4233C8.94138 18.54 8.61929 19.632 8.32035 20.699C8.10646 21.451 7.94542 21.9969 7.83722 22.3369C7.72567 22.5809 7.58316 22.9701 7.40971 23.5045L7.08762 24.5964L6.27486 27.1103C6.09554 27.4768 5.87578 28.0608 5.6156 28.8624C5.37856 29.6391 5.18699 30.3423 5.04087 30.9717C4.80969 31.9164 4.59329 32.5964 4.39166 33.0116C4.21402 33.4261 4.05491 33.6838 3.91435 33.7848C3.77379 33.8857 3.57159 33.9408 3.30775 33.95C2.92398 33.9634 2.58149 33.7833 2.28026 33.4096C1.97904 33.0359 1.82256 32.6811 1.81083 32.3453C1.79241 31.8176 1.94131 30.9239 2.25753 29.6641C2.59774 28.4034 2.92277 27.3955 3.2326 26.6402C3.31346 26.2051 3.38526 25.8544 3.44801 25.5881C3.53473 25.3209 3.588 25.1269 3.6078 25.0061C3.6764 24.9077 3.77554 24.6521 3.90521 24.2393C4.05803 23.8017 4.17613 23.4013 4.25951 23.0382C4.31639 22.6039 4.97576 20.1674 6.23762 15.7287L6.46308 14.9644C6.66639 14.597 6.85435 14.1342 7.02697 13.5758C7.21466 13.4492 7.30181 13.194 7.28841 12.8102C7.28589 12.7383 7.31852 12.6411 7.38629 12.5186C7.47804 12.3954 7.52308 12.3097 7.52141 12.2618C7.54456 12.237 7.58012 12.2237 7.62809 12.222C7.65207 12.2212 7.67648 12.2323 7.7013 12.2555C7.74927 12.2538 7.81955 12.2033 7.91214 12.104L7.87616 12.1053L6.11952 12.3468L5.33051 12.4464C3.91957 12.6157 3.11899 12.7277 2.92878 12.7824L2.42634 12.8359C1.6828 12.8619 1.15009 12.7364 0.828231 12.4595C0.529517 12.1577 0.421431 11.8133 0.503971 11.4262C0.565038 11.1119 0.736134 10.8537 1.01726 10.6518C1.32237 10.449 1.8202 10.2635 2.51075 10.0953C2.72494 10.0398 3.14217 9.9532 3.76244 9.83549L4.72757 9.62167L5.9458 9.43505C7.32941 9.1706 8.79949 8.97517 10.356 8.84877C11.0028 8.80217 11.5416 8.75934 11.9725 8.72028C12.4266 8.65639 12.7251 8.60995 12.8682 8.58094C13.2048 8.59319 13.7466 8.63431 14.4935 8.70429C15.2644 8.77343 15.8198 8.8621 16.1598 8.9703C16.6917 9.0718 17.1309 9.27259 17.4776 9.57267C17.8243 9.87276 18.0647 10.2246 18.1989 10.6281ZM12.3431 30.7528C11.9981 30.5007 11.7255 30.258 11.5252 30.0249C11.325 29.7917 11.2533 29.458 11.3102 29.0238C11.3536 28.2057 11.5005 27.252 11.7506 26.1627L11.9053 25.4368C11.9547 24.7867 12.2821 23.5025 12.8875 21.5842C13.5161 19.6411 14.0465 18.3258 14.4788 17.6382C14.7102 17.39 15.1138 17.2558 15.6894 17.2357C16.1691 17.219 16.5083 17.3032 16.7069 17.4884C16.9038 17.6256 17.0081 17.8621 17.0198 18.1979C17.0391 18.7496 16.7252 19.7331 16.0782 21.1486L15.7448 21.9167C15.5878 22.2343 15.454 22.5272 15.3433 22.7952C15.2565 23.0624 15.2727 23.1819 15.3918 23.1537C15.6397 22.6888 16.2536 22.043 17.2333 21.2163C18.237 20.3888 18.9274 19.8724 19.3045 19.6671C19.469 19.5653 19.6816 19.4618 19.942 19.3566C20.2025 19.2515 20.3799 19.1732 20.4742 19.1219C20.8984 18.891 21.3863 18.7659 21.938 18.7466C22.3217 18.7332 22.6476 18.7819 22.9157 18.8926C23.2068 18.9785 23.4042 19.1277 23.5076 19.3402C23.5375 19.5072 23.6021 19.6371 23.7014 19.7297C23.8246 19.8214 23.9107 19.8784 23.9595 19.9008C24.0314 19.8982 24.0807 19.9325 24.1072 20.0037C24.1328 20.0508 24.1461 20.0864 24.1469 20.1103C24.1536 20.3022 23.9945 20.5599 23.6696 20.8835C23.3439 21.183 23.0015 21.3511 22.6426 21.3876C22.3796 21.4208 22.1058 21.4904 21.8214 21.5964C21.5369 21.7024 21.2533 21.8324 20.9705 21.9863L20.0539 22.5587C19.2526 22.9949 18.5713 23.4269 18.0099 23.8548C17.4716 24.2578 16.9255 24.7812 16.3717 25.4249C16.2559 25.549 16.0819 25.7232 15.8496 25.9475C15.6412 26.1709 15.4582 26.4294 15.3003 26.7231C15.1383 26.8969 14.9739 27.3469 14.8071 28.0731C14.6635 28.7746 14.5946 29.2092 14.6005 29.3771L14.4717 29.8139C14.4073 30.0323 14.306 30.2279 14.168 30.4009C13.9613 30.6722 13.7881 30.8704 13.6484 30.9954C13.5087 31.1203 13.3549 31.1857 13.187 31.1916C12.9471 31.2 12.6658 31.0537 12.3431 30.7528ZM34.302 17.5944C34.5329 18.0186 34.658 18.5065 34.6773 19.0582C34.7016 19.7538 34.5658 20.3349 34.2699 20.8015C34.0417 21.1456 33.8434 21.6569 33.675 22.3352C33.5306 23.0126 33.3941 23.9179 33.2656 25.0511C33.0815 25.9701 32.8667 27.3825 32.621 29.2882C32.2724 30.309 32.059 31.0729 31.9806 31.5799C31.9617 31.7247 31.8522 32.0287 31.6523 32.4919C31.4763 32.9544 31.3329 33.3196 31.2222 33.5876C30.2191 35.808 28.9933 37.4958 27.5447 38.6511C26.1201 39.8055 24.642 40.4575 23.1103 40.607C22.7282 40.6684 22.5011 40.7003 22.4292 40.7028C22.2133 40.7104 22.0082 40.6815 21.8138 40.6163C21.6434 40.5502 21.4482 40.4609 21.2281 40.3485C20.7367 40.0295 20.4525 39.7993 20.3755 39.6579C20.2472 39.4222 20.1788 39.1844 20.1705 38.9446C20.1579 38.5848 20.317 38.3271 20.6478 38.1715C20.9794 38.0398 21.361 37.9664 21.7928 37.9514C21.964 38.0414 22.2535 38.0794 22.6613 38.0651C23.069 38.0509 23.3072 37.9945 23.3758 37.8961C23.4221 37.8464 23.5631 37.7575 23.7988 37.6292C24.0353 37.5248 24.3082 37.4313 24.6175 37.3484C25.3956 36.937 25.9818 36.5323 26.3762 36.1343C26.7945 35.7355 27.2408 35.1075 27.7152 34.2504C28.283 33.318 28.6499 32.4767 28.8158 31.7265C29.1 30.9241 29.4307 29.7358 29.808 28.1617L29.7733 28.1989C29.6584 28.347 29.3661 28.5733 28.8964 28.8779C28.426 29.1585 28.1427 29.3005 28.0468 29.3038C28.0228 29.3047 27.9872 29.3179 27.9401 29.3436C27.893 29.3692 27.8707 29.4181 27.8732 29.49C27.8765 29.5859 27.5702 29.7527 26.9541 29.9904C26.3372 30.204 25.9448 30.3138 25.7769 30.3197C25.537 30.328 25.2686 30.2053 24.9715 29.9516C24.6985 29.6969 24.4982 29.4638 24.3707 29.2521C24.2673 29.0396 24.0798 28.83 23.8085 28.6233C23.5106 28.3456 23.2859 28.1013 23.1345 27.8904C22.9822 27.6556 22.9006 27.3823 22.8897 27.0705C22.8838 26.9026 22.8912 26.7702 22.9119 26.6734C23.162 25.584 23.6319 23.9106 24.3215 21.6532C25.0343 19.3709 25.561 17.9477 25.9015 17.3834C25.9924 17.2362 26.1681 17.11 26.4286 17.0048C26.6891 16.8997 26.9512 16.8425 27.2151 16.8333C27.6948 16.8165 28.0236 16.9491 28.2016 17.2311C28.5036 17.6288 28.6597 17.9715 28.6697 18.2594C28.6815 18.5952 28.5307 19.0927 28.2175 19.7521C28.1308 20.0192 28.0209 20.3113 27.8879 20.6281C27.7549 20.9449 27.6896 21.1393 27.6922 21.2113C27.6715 21.3081 27.61 21.6104 27.5077 22.1183C27.4045 22.6022 27.305 22.8458 27.209 22.8491C27.0701 22.9981 26.9198 23.5076 26.7581 24.3778C26.6195 25.2232 26.559 25.8977 26.5766 26.4014C26.5867 26.6892 26.6277 26.8319 26.6996 26.8293C27.3472 26.8067 27.965 26.6171 28.5529 26.2603C29.14 25.8796 29.7439 25.2942 30.3647 24.504C30.4397 23.901 30.549 23.2488 30.6926 22.5474C30.8602 21.8451 30.9758 21.3728 31.0394 21.1304C31.4192 19.6282 31.6651 18.4189 31.7772 17.5025C31.9094 17.1616 32.0106 16.966 32.0809 16.9155C32.1503 16.841 32.305 16.7996 32.5448 16.7912C32.8327 16.7812 33.1474 16.8542 33.4891 17.0104C33.8547 17.1657 34.1257 17.3604 34.302 17.5944ZM46.8964 32.68C45.9601 32.6887 45.2806 32.4843 44.8577 32.0668C44.4597 31.6725 44.2473 31.0915 44.2205 30.324C44.2138 30.1321 44.2269 29.8195 44.2598 29.3861C44.344 29.0469 44.4043 28.7086 44.4405 28.3711C44.542 27.8393 44.651 27.5233 44.7676 27.4231C44.7908 27.3983 44.8131 27.3495 44.8346 27.2767C44.856 27.2039 44.8299 27.1448 44.7563 27.0993C44.7454 26.7875 44.8383 26.352 45.0349 25.7928C45.077 25.6232 45.1311 25.4533 45.1972 25.2828C45.2633 25.1124 45.3075 25.0028 45.3298 24.954C45.2802 24.9077 45.2537 24.8366 45.2503 24.7407C45.2461 24.6207 45.3019 24.4987 45.4176 24.3746C45.5574 24.2496 45.6495 24.1384 45.6941 24.0407C45.7628 23.9423 45.7594 23.8463 45.6841 23.7529C45.6319 23.6347 45.841 23.087 46.3111 22.11C46.6012 21.4755 46.7569 21.1219 46.7784 21.0491C46.7519 20.978 46.9043 20.5284 47.2356 19.7003C47.5909 18.8714 47.8694 18.2493 48.071 17.834C48.2827 17.7065 48.1958 17.6255 47.8103 17.591C47.4249 17.5564 46.9568 17.5607 46.4059 17.604C45.6136 17.6076 45.0007 17.593 44.5673 17.5601C44.133 17.5032 43.7815 17.4075 43.5126 17.2728C43.3389 17.1107 43.2474 16.8978 43.2382 16.6339C43.2273 16.3221 43.3251 16.0305 43.5318 15.7592C43.7624 15.4869 44.0452 15.333 44.3802 15.2973C45.003 15.2515 45.9595 15.1341 47.2497 14.9449L49.0795 14.7369L49.1661 14.1215C49.2785 13.9015 49.3801 13.7178 49.471 13.5706C49.5851 13.3985 49.652 13.252 49.6718 13.1313C49.7156 13.0097 49.7453 12.8285 49.7609 12.5878C49.8295 12.4894 49.9411 12.2453 50.0956 11.8557C50.2741 11.4652 50.381 11.0893 50.4164 10.7278C50.6643 10.2629 50.8891 9.82278 51.0907 9.40749C51.3155 8.96738 51.4506 8.71051 51.4961 8.63688C51.9052 7.97419 52.3736 7.63364 52.9013 7.61521C53.1891 7.60516 53.4923 7.69063 53.8108 7.87163C54.1301 8.07661 54.3767 8.26011 54.5505 8.42215C54.7242 8.58418 54.8161 8.80911 54.8262 9.09694C54.8337 9.31281 54.7367 9.62839 54.535 10.0437C54.4458 10.2389 54.3153 10.6277 54.1435 11.21C53.9831 11.4318 53.8137 11.7379 53.6352 12.1283C53.4559 12.4948 53.3362 12.8472 53.2759 13.1855C53.2321 13.3071 53.166 13.4775 53.0776 13.6968C52.9884 13.892 52.9206 14.0144 52.8743 14.0641C52.8512 14.0889 52.8036 14.1026 52.7317 14.1051C52.7607 14.2482 52.812 14.3424 52.8856 14.3879C52.9593 14.4333 53.08 14.4531 53.2479 14.4473C53.3679 14.4431 53.5114 14.4261 53.6784 14.3962C53.8695 14.3655 54.0969 14.3456 54.3607 14.3364C54.5998 14.304 54.8024 14.2609 54.9686 14.2071C55.1588 14.1524 55.3379 14.1221 55.5058 14.1163C55.6017 14.1129 55.7469 14.1439 55.9413 14.2091C56.0662 14.3489 56.1358 14.6226 56.1501 15.0303C56.1609 15.3422 56.1234 15.6437 56.0376 15.9348C55.9508 16.202 55.8368 16.3741 55.6954 16.4511C55.5763 16.4793 55.3149 16.5604 54.9114 16.6946C54.5078 16.8288 54.0666 16.9162 53.5877 16.9569L51.6872 17.2034L51.1183 18.448C50.9604 18.7417 50.8261 19.0226 50.7154 19.2906C50.6047 19.5586 50.5262 19.7175 50.4799 19.7671C50.4841 19.887 50.3965 20.1303 50.2172 20.4967C50.0379 20.8632 49.904 21.1561 49.8156 21.3753C49.7074 21.7153 49.5752 22.0561 49.4191 22.3977C49.2621 22.7154 49.1613 22.9231 49.1166 23.0207C49.0447 23.0232 48.9975 23.0489 48.9752 23.0977L48.9803 23.2416L49.0623 23.5269C49.0665 23.6468 49.0107 23.7688 48.8949 23.8929C48.8007 23.9443 48.7077 24.0316 48.6159 24.1548C48.5481 24.2773 48.5031 24.3629 48.4808 24.4117C48.5304 24.458 48.5565 24.5171 48.559 24.5891C48.5649 24.757 48.4885 24.9758 48.3298 25.2455C48.344 25.6532 48.1975 26.2707 47.8902 27.098C47.9292 27.5289 47.9629 27.8039 47.991 27.9229C48.0192 28.042 48.0808 28.0879 48.1759 28.0606L48.3558 28.0543L49.1461 27.9907C49.3115 27.9129 49.3537 28.0915 49.2729 28.5266C49.216 28.9608 49.0352 29.6275 48.7304 30.5267C48.3898 31.091 48.0228 31.5841 47.6293 32.0061C47.2606 32.4512 47.0163 32.6759 46.8964 32.68ZM55.9856 28.8325C55.5514 28.7756 55.1472 28.5496 54.7732 28.1544C54.3992 27.7592 54.203 27.2978 54.1845 26.7701C54.1644 26.1944 54.4727 24.7068 55.1093 22.3071C55.2075 21.6793 55.4433 20.8666 55.8167 19.8689C55.9464 19.4562 56.0219 19.2134 56.0434 19.1406C56.4249 17.6864 56.951 15.9029 57.6216 13.7902L57.9153 12.9155C58.6752 10.6075 59.1303 9.19879 59.2806 8.68923L59.801 7.08609C59.7943 6.89421 59.9199 6.70971 60.1779 6.5326C60.459 6.33067 60.6955 6.22635 60.8874 6.21965C61.2712 6.20625 61.6518 6.44511 62.0291 6.93624C62.4065 7.42737 62.6168 7.94835 62.6601 8.49918C62.6701 8.787 62.6194 9.05293 62.5078 9.29698C61.998 10.5155 61.3794 12.3982 60.6518 14.9452C60.3289 16.0131 60.0043 17.0331 59.678 18.005C59.3509 18.953 59.0865 19.6347 58.8849 20.05L58.5168 20.8553L58.0797 22.7797C58.0822 22.8517 58.0723 22.9121 58.05 22.9609C58.0276 23.0097 58.0169 23.0461 58.0177 23.0701C58.0203 23.142 58.0335 23.1776 58.0575 23.1767L58.6478 22.5438C59.319 21.8239 60.1218 21.0874 61.0561 20.3344C61.8284 19.7551 62.2252 19.429 62.2467 19.3562C62.2682 19.2834 62.3604 19.1721 62.5232 19.0224L62.873 18.722C63.6212 18.1435 64.4391 17.8388 65.3265 17.8078C65.5904 17.7986 65.9068 17.9196 66.2758 18.1709C66.6448 18.4222 66.9576 18.7835 67.2142 19.2548C67.4939 19.7013 67.643 20.1884 67.6615 20.7161L67.6715 21.0039L67.6803 21.2557C67.7013 21.8554 67.609 22.6511 67.4035 23.6429C67.2211 24.6098 67.1204 25.1657 67.1015 25.3104C67.2214 25.3062 67.4004 25.276 67.6386 25.2196C67.9984 25.207 68.2515 25.2342 68.3979 25.3012C68.5683 25.3673 68.7156 25.4582 68.8397 25.5739C68.9638 25.6896 69.0743 25.7578 69.1711 25.7785C69.2207 25.8248 69.2472 25.8959 69.2506 25.9918C69.2698 26.5435 68.9868 27.0337 68.4014 27.4624C67.816 27.8911 67.2483 28.139 66.6983 28.2062C66.0267 28.2297 65.4782 27.9967 65.0529 27.5072C64.6275 27.0178 64.4023 26.4133 64.3772 25.6937C64.3671 25.4059 64.3691 25.1177 64.383 24.829C64.3969 24.5403 64.4121 24.2876 64.4286 24.0709C64.4838 23.5887 64.5064 23.2037 64.4963 22.9159C64.4854 22.6041 64.4423 22.4014 64.367 22.308C64.3149 22.1898 64.2168 22.1332 64.0729 22.1382C63.5932 22.1549 62.7692 22.628 61.6009 23.5573C60.4558 24.4618 59.2959 25.631 58.1212 27.0649C57.3931 28.219 56.6812 28.8082 55.9856 28.8325ZM75.3772 29.5242C74.01 29.5719 72.8933 29.2267 72.027 28.4885C71.1607 27.7502 70.7029 26.6736 70.6534 25.2584C70.6342 24.7068 70.6488 24.0939 70.6973 23.4198C70.7252 22.8424 70.9254 22.043 71.298 21.0213C71.6945 19.9989 72.2358 18.9954 72.9219 18.0108C73.6319 17.0255 74.4707 16.2877 75.4382 15.7977C75.8864 15.5659 76.2651 15.4086 76.5744 15.3257C76.8829 15.2189 77.241 15.1584 77.6487 15.1441C78.6321 15.1098 79.4299 15.262 80.0421 15.6009C80.6783 15.9389 81.1243 16.3316 81.38 16.7789C81.6598 17.2254 81.8055 17.6166 81.8173 17.9524L81.8235 18.1322L81.8273 18.2402C81.8374 18.528 81.6879 19.0615 81.3789 19.8408C81.0699 20.6201 80.5554 21.3585 79.8353 22.056C79.1392 22.7527 78.2167 23.1572 77.0679 23.2693C76.4923 23.2894 75.9269 23.2612 75.3719 23.1845C74.8401 23.083 74.5022 23.0347 74.3583 23.0398C73.9985 23.0523 73.7752 23.1922 73.6885 23.4594C73.6018 23.7266 73.5693 24.172 73.5911 24.7956C73.6865 25.4647 73.8827 25.9261 74.1797 26.1799C74.5008 26.4329 74.9491 26.5493 75.5248 26.5292C75.8126 26.5191 76.1454 26.4235 76.5233 26.2422C76.9004 26.0369 77.3457 25.7211 77.8591 25.295C78.1385 25.0451 78.3605 24.8692 78.5251 24.7674C78.6896 24.6656 78.8918 24.6105 79.1317 24.6021C79.3476 24.5946 79.6044 24.7297 79.9023 25.0075C80.2002 25.2853 80.3657 25.5556 80.3989 25.8186C80.361 26.1081 80.1122 26.5491 79.6526 27.1415C79.193 27.7339 78.5874 28.2714 77.8358 28.7539C77.0842 29.2364 76.2646 29.4932 75.3772 29.5242ZM76.3336 20.8095C76.7894 20.7936 77.0995 20.7347 77.264 20.6329C77.4997 20.5046 77.849 20.1922 78.312 19.6958C78.7981 19.1745 79.0498 18.8175 79.0671 18.6247C79.0587 18.3849 78.944 18.1968 78.7232 18.0604C78.5254 17.8992 78.2458 17.8009 77.8843 17.7655L77.4886 17.7793C77.1768 17.7902 76.7303 18.07 76.1491 18.6186C75.591 19.1424 75.1078 19.7476 74.6995 20.4343C74.7277 20.5534 74.9114 20.655 75.2505 20.7392C75.5888 20.7995 75.9499 20.8229 76.3336 20.8095ZM92.1145 32.0736C91.8036 32.1085 91.4851 31.9275 91.159 31.5306C90.833 31.1337 90.5499 30.5913 90.3097 29.9033C90.0944 29.2384 89.9733 28.5222 89.9465 27.7546C89.9158 27.5636 89.8938 27.2762 89.8804 26.8924C89.8209 25.1894 90.223 22.6058 91.0866 19.1416C91.3805 17.9306 91.9575 16.2294 92.8175 14.0381C93.6776 11.8467 94.2006 10.6637 94.3866 10.4891L94.4586 10.4866C94.5545 10.4833 94.5987 10.3737 94.5912 10.1578C94.5895 10.1098 94.6792 9.92659 94.8602 9.60808C95.0403 9.26559 95.2085 8.92351 95.3647 8.58185C95.8432 7.8447 96.4769 7.07812 97.2656 6.28211C98.0774 5.46128 98.7554 4.93329 99.2995 4.69816C99.6543 4.54168 100.012 4.45716 100.371 4.4446C100.827 4.42869 101.336 4.567 101.899 4.85955C102.46 5.12811 102.941 5.48355 103.341 5.92587C103.741 6.36819 103.948 6.80522 103.963 7.23696C103.976 7.62072 103.905 7.99543 103.75 8.36107C103.647 8.84497 103.439 9.42857 103.127 10.1119C102.814 10.7952 102.544 11.3089 102.316 11.6531C101.803 12.0793 101.318 12.3003 100.862 12.3163C100.646 12.3238 100.477 12.2817 100.354 12.1899C100.254 12.0973 100.239 12.0018 100.308 11.9034C100.326 11.7346 100.355 11.5295 100.394 11.288C100.457 11.0216 100.496 10.7681 100.512 10.5274C100.51 10.4794 100.553 10.3338 100.641 10.0906C100.751 9.82262 100.803 9.58067 100.795 9.3648C100.982 8.51777 101.071 7.96234 101.061 7.6985C101.051 7.41068 100.926 7.27095 100.686 7.27933C100.47 7.26288 100.244 7.3428 100.01 7.51907C99.7996 7.67052 99.6971 7.83019 99.7029 7.99809L99.708 8.142C99.5872 8.12221 99.1945 8.56818 98.5299 9.47993C97.8893 10.3908 97.3657 11.2136 96.9591 11.9483C96.6038 12.7772 96.1197 14.0428 95.5068 15.7453L95.2491 16.6188L95.8272 16.6706C96.02 16.6879 96.6047 16.5834 97.5814 16.3572C97.7245 16.3282 97.9279 16.3091 98.1917 16.2999C98.6954 16.2823 99.071 16.3773 99.3184 16.5847C99.5898 16.7914 99.8165 17.0957 99.9986 17.4976C100.103 17.7341 100.157 17.9003 100.16 17.9962C100.173 18.356 99.8821 18.6303 99.2883 18.8192C98.6937 18.984 97.6182 19.1296 96.0616 19.256C95.8449 19.2396 95.5687 19.2372 95.2329 19.2489C94.8491 19.2624 94.6109 19.3187 94.5183 19.418C94.3769 19.495 94.1671 20.0186 93.8888 20.9889C93.6345 21.9584 93.45 22.8654 93.3354 23.7099C93.1076 24.7505 93.018 25.9663 93.0665 27.3575C93.1101 28.6047 93.2267 29.5372 93.4164 30.155C93.4437 30.2501 93.4599 30.3696 93.4649 30.5135C93.4884 31.1851 93.0382 31.7051 92.1145 32.0736ZM101.37 28.0762C101.202 28.082 100.97 27.97 100.673 27.7402C100.401 27.5096 100.238 27.2992 100.183 27.109C100.158 27.0618 100.142 26.9543 100.136 26.7864C100.125 26.4746 100.248 25.858 100.504 24.9365L100.715 23.7764C100.918 22.7126 101.103 21.8176 101.27 21.0914C101.337 20.945 101.466 20.5322 101.659 19.8531C101.784 19.3204 101.958 18.798 102.18 18.2859C102.431 17.1965 102.849 16.1132 103.436 15.0361C103.504 14.9137 103.618 14.7656 103.781 14.5918C103.943 14.418 104.06 14.3299 104.132 14.3274C104.27 14.1785 104.472 14.0994 104.736 14.0902C105.119 14.0768 105.472 14.1965 105.793 14.4495C106.117 14.7984 106.286 15.1767 106.301 15.5845C106.317 16.0402 106.168 16.6097 105.856 17.293C105.683 17.8274 105.394 18.5099 104.991 19.3405C104.676 19.9518 104.486 20.3547 104.421 20.5491C104.695 20.1553 105.294 19.4139 106.216 18.3251C106.493 18.0032 106.76 17.7417 107.017 17.5406C107.274 17.3156 107.66 17.0259 108.176 16.6717C108.69 16.2695 109.101 15.991 109.407 15.8362C109.713 15.6574 110.07 15.5609 110.478 15.5466C110.67 15.5399 110.814 15.5469 110.911 15.5676C111.222 15.5327 111.553 15.7252 111.904 16.1453C112.279 16.5644 112.476 17.0498 112.495 17.6015C112.502 17.8174 112.474 18.0345 112.41 18.2529C112.12 18.215 111.915 18.1981 111.795 18.2023C111.316 18.219 110.887 18.3301 110.51 18.5353C110.157 18.7398 109.864 18.9421 109.631 19.1424C109.397 19.3187 109.245 19.4321 109.174 19.4825C108.354 20.0635 107.385 20.8418 106.266 21.8175C105.707 22.3173 105.29 22.7521 105.015 23.1219C104.74 23.4918 104.525 23.8835 104.372 24.2971C104.329 24.4427 104.12 25.0143 103.747 26.0119C103.373 26.9856 103.081 27.5601 102.871 27.7356C102.76 28.0036 102.453 28.1464 101.949 28.164C101.685 28.1732 101.492 28.1439 101.37 28.0762ZM116.211 28.7466C113.476 28.8421 112.055 27.3308 111.946 24.2127C111.907 23.0854 112.138 21.8045 112.64 20.3701C113.166 18.9109 113.828 17.603 114.629 16.4463C115.452 15.2649 116.276 14.4676 117.103 14.0545C117.55 13.7988 118.073 13.6604 118.673 13.6395C119.752 13.6018 120.696 13.809 121.504 14.261C122.336 14.6883 122.774 15.5495 122.819 16.8447C122.831 17.1697 122.794 17.5102 122.711 17.866C122.784 17.8266 122.878 17.7723 122.993 17.7032C123.205 17.5757 123.371 17.5339 123.493 17.5777C123.589 17.5743 123.735 17.6293 123.931 17.7425C124.151 17.8549 124.263 17.959 124.266 18.055C124.42 18.3378 124.775 17.8571 125.332 16.6129C125.65 16.0975 126.089 15.5899 126.648 15.09C127.206 14.5663 127.72 14.1641 128.191 13.8835C128.356 13.8056 128.725 13.6967 129.296 13.5567C129.891 13.3918 130.356 13.3036 130.692 13.2918C131.075 13.2784 131.525 13.4188 132.039 13.7131C132.578 14.0064 133.021 14.3272 133.37 14.6752C133.886 15.0174 134.162 15.6922 134.197 16.6996C134.218 17.2992 134.14 17.8182 133.963 18.2567C133.88 18.6198 133.419 19.1882 132.582 19.9619C131.767 20.7108 131.1 21.2024 130.58 21.4367C130.056 21.575 129.471 21.6555 128.823 21.6781C128.176 21.7008 127.73 21.6563 127.486 21.5447C127.314 21.4547 127.172 21.5077 127.059 21.7037C126.969 21.875 126.899 22.2737 126.849 22.8998L126.825 23.2608C126.834 23.5247 126.903 23.7744 127.031 24.0101C127.209 24.2921 127.372 24.4905 127.521 24.6054C127.669 24.7203 127.887 24.7727 128.174 24.7627L128.497 24.7154C128.76 24.6822 129.031 24.5406 129.311 24.2907C129.614 24.04 129.963 23.7036 130.356 23.2816C130.774 22.8588 131.017 22.6101 131.086 22.5357C131.198 22.2916 131.518 22.1604 132.045 22.142C132.261 22.1344 132.538 22.1608 132.877 22.221C133.123 22.4045 133.251 22.6402 133.262 22.928C133.276 23.3358 133.103 23.8941 132.744 24.6031C132.632 24.8471 132.275 25.2679 131.671 25.8653C131.092 26.4619 130.626 26.8744 130.273 27.1028C129.638 27.4852 128.925 27.6903 128.134 27.7179C127.534 27.7388 126.906 27.6407 126.25 27.4234C125.448 27.1393 124.843 26.6801 124.437 26.0459C124.054 25.3869 123.844 24.5297 123.807 23.4743C123.798 23.2345 123.807 22.8019 123.834 22.1766C123.851 21.9839 123.855 21.7556 123.846 21.4917C123.831 21.084 123.773 20.7859 123.67 20.5973C123.567 20.3848 123.391 20.1748 123.144 19.9673C123.07 19.8979 122.896 19.7478 122.624 19.5172C122.424 19.3475 122.302 19.2075 122.26 19.0973C122.225 19.1702 122.188 19.2436 122.149 19.3176C121.677 20.2227 121.067 21.0004 120.322 21.6508C119.599 22.2764 118.878 22.6018 118.158 22.6269C117.079 22.6646 116.155 22.3486 115.388 21.679C115.008 22.5088 114.832 23.2954 114.858 24.039C114.879 24.6386 114.967 25.1038 115.122 25.4346C115.277 25.7414 115.619 25.8855 116.146 25.8671C116.65 25.8495 117.055 25.7633 117.362 25.6085C117.669 25.4537 117.951 25.2758 118.208 25.0747C118.465 24.8736 118.664 24.7226 118.804 24.6216L118.946 24.5446L118.91 24.5459C119.333 24.2909 119.639 24.1002 119.826 23.9735C120.037 23.8221 120.214 23.7199 120.356 23.6669C120.716 23.6543 121.055 23.7505 121.375 23.9555C121.694 24.1605 121.859 24.4189 121.87 24.7307C121.878 24.9705 121.676 25.3738 121.264 25.9406C120.851 26.4833 120.42 26.8706 119.972 27.1024L119.547 27.3333L119.583 27.3321C119.378 27.6274 119.167 27.7789 118.951 27.7864L118.663 27.7965C118.574 27.9917 118.257 28.1949 117.712 28.406C117.191 28.6163 116.69 28.7299 116.211 28.7466ZM117.779 20.0106C118.45 19.9871 118.992 19.68 119.404 19.0893C119.839 18.4977 120.047 17.9141 120.027 17.3385C120.018 17.0746 119.937 16.8373 119.786 16.6265C119.658 16.4148 119.487 16.3127 119.271 16.3202C118.863 16.3345 118.414 16.5423 117.924 16.9436C117.434 17.345 117.007 17.8642 116.645 18.5012L116.204 19.2731C116.298 19.2218 116.369 19.1953 116.417 19.1936C116.609 19.1869 116.756 19.2658 116.858 19.4304C116.96 19.5949 117.073 19.735 117.197 19.8508C117.321 19.9665 117.515 20.0198 117.779 20.0106ZM128.63 19.2354C129.2 19.0714 129.638 18.888 129.943 18.6852C130.272 18.4576 130.641 18.0365 131.052 17.4218C131.224 16.8394 131.248 16.4904 131.123 16.3746C130.975 16.2357 130.804 16.1697 130.612 16.1764C130.372 16.1847 130.089 16.3267 129.763 16.6023C129.525 16.6826 129.197 16.9222 128.779 17.321C128.384 17.695 128.049 18.067 127.773 18.4368C127.497 18.7827 127.42 18.9895 127.543 19.0572C127.497 19.1309 127.619 19.1866 127.909 19.2246C128.198 19.2385 128.438 19.2421 128.63 19.2354ZM146.758 27.5718C146.182 27.5919 145.578 27.4929 144.947 27.2749C144.338 27.0559 143.813 26.7861 143.369 26.4654C142.949 26.1199 142.734 25.8032 142.724 25.5154C142.714 25.2275 142.839 25.043 143.101 24.9619L143.276 24.8117C143.323 24.786 143.418 24.7707 143.562 24.7656C143.657 24.7383 143.778 24.7461 143.923 24.7891C144.068 24.808 144.188 24.8158 144.284 24.8125C144.454 24.8546 144.707 24.8938 145.045 24.93L145.984 25.0053C146.464 24.9885 146.906 24.9251 147.31 24.8149C147.738 24.7039 147.951 24.5884 147.946 24.4685C147.944 24.3965 147.844 24.2799 147.646 24.1187C147.448 23.9575 147.241 23.8807 147.026 23.8882C147.022 23.7923 146.639 23.4815 145.876 22.9558C145.458 22.6582 145.051 22.3602 144.656 22.0618C144.286 21.7626 144.098 21.541 144.093 21.3971L144.126 21.3239L144.12 21.144C143.952 21.1498 143.788 20.9274 143.628 20.4767C143.469 20.026 143.381 19.5848 143.366 19.1531C143.338 18.3376 143.666 17.4255 144.351 16.417C145.036 15.4085 145.893 14.49 146.921 13.6617C147.972 12.8325 148.973 12.2572 149.922 11.9359C150.276 11.7554 150.801 11.653 151.496 11.6287C151.952 11.6128 152.266 11.6499 152.437 11.74L152.722 11.658C153.01 11.6479 153.39 11.8748 153.863 12.3386C154.335 12.8024 154.636 13.1761 154.766 13.4597C154.794 14.2513 154.792 14.8877 154.761 15.3691C154.73 15.8505 154.618 16.0945 154.426 16.1012C154.402 16.102 154.367 16.1153 154.32 16.141C154.273 16.1666 154.251 16.2274 154.254 16.3234C154.266 16.6592 153.979 17.0414 153.393 17.4701C152.832 17.8979 152.311 18.1202 151.832 18.137L151.687 18.106C151.542 18.0871 151.321 17.9507 151.024 17.6969C150.751 17.4423 150.61 17.1831 150.601 16.9192C150.598 16.8473 150.735 16.6504 151.012 16.3285C151.289 16.0066 151.518 15.6984 151.7 15.4039C151.905 15.0846 152.002 14.757 151.99 14.4212C151.986 14.3013 151.936 14.231 151.839 14.2104C151.765 14.1649 151.608 14.1464 151.369 14.1547C150.07 14.8004 149.143 15.3972 148.585 15.945C148.518 16.0914 148.45 16.2018 148.381 16.2763C148.335 16.3499 148.265 16.3884 148.169 16.3918C148.168 16.3678 148.155 16.3562 148.131 16.3571C148.083 16.3587 147.933 16.5081 147.679 16.8051C147.424 17.0782 147.183 17.3988 146.956 17.7669C146.753 18.1343 146.632 18.4747 146.595 18.7881L146.527 18.8986L146.533 19.0785C146.511 19.1273 146.502 19.2236 146.507 19.3676C146.515 19.5834 146.619 19.8079 146.819 20.0411C147.019 20.2503 147.413 20.5487 148.003 20.9363C149.111 21.7141 149.864 22.3002 150.262 22.6946C150.683 23.0641 150.947 23.4031 151.054 23.7115C151.285 24.1357 151.406 24.5157 151.418 24.8515C151.446 25.667 151.037 26.3177 150.189 26.8036C149.365 27.2647 148.221 27.5207 146.758 27.5718ZM155.837 25.958C155.76 25.8166 155.55 25.6318 155.205 25.4037C154.861 25.1756 154.688 25.0375 154.687 24.9895C154.683 24.8936 154.619 24.7638 154.493 24.6001C154.39 24.4115 154.288 24.247 154.187 24.1064C153.989 23.9212 154.099 23.293 154.518 22.2217C154.937 21.1505 155.505 19.8819 156.222 18.4159C156.361 18.267 156.532 18.0089 156.735 17.6416C156.963 17.2734 157.111 17.0641 157.182 17.0136C157.178 16.9177 157.211 16.8325 157.281 16.758C157.35 16.6595 157.432 16.6086 157.528 16.6053L157.795 16.0196C157.884 15.8004 158.334 15.2683 159.145 14.4235C159.956 13.5787 160.596 13.004 161.066 12.6994C161.51 12.3717 161.997 12.1986 162.524 12.1802C163.1 12.1601 163.598 12.3108 164.017 12.6324L165.017 13.426C165.758 14.0005 166.178 14.334 166.277 14.4266L167.65 15.5674L167.101 17.3877C166.908 18.0428 166.821 18.6582 166.841 19.2338C166.873 20.1453 167.155 20.988 167.686 21.7619C167.815 22.0216 167.978 22.22 168.175 22.3572C168.396 22.4936 168.675 22.5799 169.013 22.6161C169.544 22.6936 169.817 22.9483 169.832 23.38C169.85 23.9077 169.768 24.3068 169.585 24.5773C169.403 24.8479 169.181 25.0237 168.919 25.1049C168.537 25.1663 168.274 25.1995 168.13 25.2045C167.435 25.2288 166.793 25.0711 166.205 24.7314C165.616 24.3917 165.091 23.7977 164.629 22.9493C164.529 22.8087 164.387 22.5495 164.206 22.1716C164.049 21.7929 163.956 21.532 163.927 21.3889C163.767 21.6346 163.502 21.956 163.132 22.3532C160.748 24.934 158.789 26.2511 157.254 26.3047C156.726 26.3232 156.254 26.2076 155.837 25.958ZM157.712 22.9027C158.097 22.9373 158.826 22.4796 159.897 21.5296C160.014 21.4295 160.142 21.3169 160.281 21.192C160.42 21.043 160.571 20.8937 160.734 20.7439C161.386 20.1688 161.886 19.6951 162.233 19.3227C162.604 18.9255 162.972 18.4564 163.337 17.9153L164.083 16.5925C163.825 16.0732 163.597 15.7329 163.399 15.5717C163.201 15.3866 163.005 15.2973 162.814 15.304C162.334 15.3208 161.749 15.7734 161.06 16.662C160.37 17.5267 159.551 18.84 158.604 20.6022C158.355 21.0431 158.155 21.5064 158.004 21.9919C157.852 22.4535 157.755 22.7571 157.712 22.9027ZM186.74 24.5186C186.693 24.5443 186.573 24.5604 186.382 24.5671C186.022 24.5797 185.671 24.4959 185.328 24.3158C184.986 24.1356 184.76 23.8553 184.65 23.4749C184.624 23.4038 184.508 23.1797 184.303 22.8026C184.121 22.4247 184.022 21.9839 184.004 21.4802C183.997 21.2644 184.003 21.096 184.023 20.9753L184.164 19.8537C184.196 19.3963 184.234 19.1188 184.279 19.0212L184.267 18.6974C184.253 18.2896 184.21 18.087 184.138 18.0895C183.946 18.0962 183.458 18.5575 182.674 19.4734C181.913 20.3885 181.26 21.2879 180.715 22.1715C180.554 22.3932 180.374 22.7237 180.173 23.163C179.995 23.5774 179.883 23.7975 179.836 23.8231C179.743 23.9224 179.601 23.9754 179.409 23.9821C179.193 23.9897 178.951 23.9261 178.682 23.7914C178.413 23.6567 178.215 23.4835 178.087 23.2718C178.036 23.1776 177.937 23.097 177.791 23.03C177.643 22.9391 177.566 22.7737 177.557 22.5339C177.543 22.1261 177.675 21.4491 177.955 20.5028C178.191 19.702 178.383 19.0109 178.531 18.4294C178.702 17.8471 178.809 17.4591 178.85 17.2655C178.844 17.0976 178.26 17.5503 177.096 18.6236C175.831 20.2047 174.707 21.7088 173.724 23.136C173.245 23.8492 172.866 24.3667 172.589 24.6886C172.312 24.9864 172.065 25.1391 171.849 25.1467C171.681 25.1525 171.497 25.0509 171.298 24.8417C171.199 24.7491 171.027 24.6351 170.782 24.4995C170.561 24.3632 170.449 24.247 170.445 24.1511C170.439 23.9592 170.375 23.8653 170.255 23.8695C170.106 23.7306 170.319 22.9427 170.893 21.5058C171.491 20.0441 172.028 18.9206 172.505 18.1355C172.598 18.0602 172.667 17.9618 172.71 17.8402C172.753 17.6946 172.751 17.6226 172.703 17.6243C172.748 17.5507 172.816 17.4282 172.906 17.257C172.996 17.0857 173.087 16.9385 173.179 16.8152C173.559 16.0094 173.705 15.368 173.616 14.8908C173.517 14.7982 173.408 14.766 173.289 14.7941C173.193 14.8215 173.134 14.8475 173.111 14.8724C173.064 14.898 172.934 14.9506 172.72 15.0301C172.53 15.0848 172.365 15.1626 172.224 15.2636C171.662 15.6674 171.273 15.8731 171.057 15.8807C170.793 15.8899 170.531 15.6109 170.271 15.0436C170.192 14.8302 170.149 14.6276 170.142 14.4357C170.131 14.1239 170.219 13.8807 170.405 13.7061C170.591 13.5315 170.836 13.3428 171.142 13.1401C171.447 12.9373 171.622 12.8111 171.669 12.7614C171.927 12.6083 172.258 12.4407 172.66 12.2585C173.085 12.0516 173.404 11.9083 173.617 11.8289C173.902 11.7229 174.188 11.6648 174.476 11.6548C175.267 11.6271 175.844 11.9912 176.207 12.747C176.557 13.1431 176.74 13.5689 176.756 14.0247C176.77 14.4324 176.622 15.0019 176.311 15.7332L175.97 16.2855C175.903 16.4319 175.871 16.5291 175.872 16.577C175.874 16.625 175.887 16.6486 175.911 16.6477C176.007 16.6444 176.112 16.5567 176.226 16.3846C176.342 16.2605 176.492 16.1111 176.678 15.9365C176.864 15.7379 176.992 15.6374 177.064 15.6349C177.088 15.634 177.124 15.6208 177.171 15.5951C177.217 15.5455 177.238 15.4487 177.233 15.3048L177.581 14.9684C177.653 14.9659 177.783 14.9013 177.971 14.7747C178.158 14.6241 178.414 14.411 178.741 14.1354C178.998 13.9344 179.235 13.83 179.45 13.8225C179.521 13.796 179.629 13.7802 179.773 13.7752C180.229 13.7593 180.609 13.9982 180.915 14.4918C181.219 14.9615 181.385 15.5801 181.412 16.3476L180.724 18.3168L181.964 16.6885C182.171 16.4171 182.448 16.1193 182.797 15.7949C182.84 15.6493 182.897 15.5633 182.968 15.5368C183.063 15.4854 183.122 15.4594 183.146 15.4585C183.17 15.4577 183.193 15.4449 183.216 15.42C183.264 15.3944 183.286 15.3576 183.285 15.3096C183.378 15.2343 183.495 15.1461 183.636 15.0452C183.799 14.9194 183.904 14.8197 183.949 14.746C184.162 14.6426 184.448 14.5845 184.808 14.572C185.192 14.5586 185.554 14.63 185.896 14.7861C186.237 14.9183 186.497 15.1494 186.677 15.4793C186.753 15.5967 186.855 15.7613 186.982 15.973C187.133 16.1598 187.235 16.3483 187.29 16.5386C187.368 16.7039 187.411 16.9185 187.42 17.1824L187.304 17.9789C187.303 17.9549 187.258 18.3648 187.167 19.2085C187.056 19.4765 187.011 19.8863 187.03 20.438C187.042 20.7738 187.061 20.9892 187.088 21.0844C187.14 21.1786 187.237 21.2232 187.381 21.2182C187.691 21.1354 187.951 21.0182 188.162 20.8668C188.396 20.7145 188.665 20.489 188.966 20.1903C189.152 19.9917 189.34 19.889 189.532 19.8823C189.748 19.8748 189.931 19.9645 190.082 20.1513C190.255 20.3134 190.383 20.513 190.463 20.7504C190.54 20.8918 190.421 21.2802 190.107 21.9155C189.817 22.55 189.588 22.8702 189.42 22.8761C189.372 22.8777 189.244 22.9783 189.035 23.1777C188.825 23.3531 188.649 23.4913 188.509 23.5923C188.117 24.0623 187.789 24.3019 187.525 24.3111C187.429 24.3144 187.299 24.355 187.133 24.4328C186.991 24.4858 186.86 24.5144 186.74 24.5186ZM190.405 34.2606C190.114 34.1747 189.671 33.854 189.075 33.2985C188.504 32.7661 188.215 32.3919 188.207 32.1761C188.195 31.8163 188.393 30.6206 188.802 28.5891C189.213 26.5816 189.624 24.9462 190.036 23.6831C190.057 23.5863 190.199 23.1851 190.462 22.4795C190.726 21.7738 190.972 20.9247 191.202 19.9321C191.369 19.2298 191.826 17.8571 192.571 15.8138L193.524 13.187C193.696 12.6286 193.903 12.021 194.145 11.3642C194.386 10.7074 194.528 10.3062 194.571 10.1606C194.657 9.8694 195.175 9.57514 196.125 9.27779C196.172 9.25213 196.256 9.23721 196.375 9.23302C196.711 9.2213 197.006 9.40313 197.259 9.77852C197.336 9.91992 197.378 10.0866 197.385 10.2784C197.4 10.7342 197.287 11.2664 197.044 11.8753L196.817 12.6037L198.103 12.2706C199.785 12.3079 200.723 12.3472 200.916 12.3885C201.445 12.394 201.82 12.477 202.042 12.6373C202.287 12.7969 202.525 13.0527 202.753 13.405C203.199 13.7977 203.451 14.1491 203.51 14.4592C203.538 14.5543 203.555 14.7098 203.563 14.9257C203.592 15.7652 203.302 16.7479 202.693 17.8738C202.084 18.9998 201.439 19.8027 200.76 20.2827C200.523 20.3871 200.323 20.4901 200.158 20.5919C199.994 20.6937 199.888 20.7575 199.841 20.7831C199.797 20.9047 199.54 21.1178 199.071 21.4224C198.601 21.727 198.059 22.0221 197.444 22.3077C196.854 22.5925 196.344 22.7664 195.914 22.8294C195.676 22.8858 195.401 22.9194 195.089 22.9303C194.825 22.9395 194.62 22.9106 194.473 22.8437C194.184 22.8058 193.991 22.7885 193.895 22.7918C193.823 22.7944 193.789 22.8436 193.792 22.9395C193.793 22.9635 193.649 23.3047 193.36 23.9632C193.094 24.5969 192.794 25.652 192.462 27.1285C191.839 29.2395 191.294 31.1677 190.827 32.9131C190.591 33.7378 190.451 34.187 190.405 34.2606ZM194.545 19.7433C194.573 19.8384 194.718 19.8813 194.982 19.8721C195.366 19.8587 195.866 19.7332 196.482 19.4956C197.098 19.2579 197.652 18.9624 198.144 18.609C198.636 18.2556 198.912 17.9098 198.972 17.5715C199.088 17.4474 199.273 17.2368 199.526 16.9398C199.779 16.6187 199.951 16.3846 200.042 16.2373C200.132 16.0661 200.176 15.9325 200.172 15.8365C200.17 15.7646 200.106 15.6707 199.982 15.555C199.706 15.2044 199.364 15.0363 198.956 15.0505C198.428 15.0689 197.623 15.3972 196.541 16.0354C196.091 16.2192 195.796 16.3736 195.657 16.4985C195.541 16.6227 195.406 16.8915 195.253 17.3051C195.121 17.6699 195.033 17.9011 194.989 17.9988C194.637 18.9236 194.489 19.5051 194.545 19.7433ZM206.05 25.3572C205.978 25.3837 205.883 25.3991 205.763 25.4033C205.259 25.4208 204.83 25.1477 204.474 24.5838C204.118 24.0198 203.924 23.2941 203.893 22.4067C203.877 21.927 203.908 21.4576 203.988 20.9985C204.228 20.2937 204.342 19.7854 204.331 19.4736C204.387 19.0154 204.599 18.1915 204.965 17.002C205.355 15.7876 205.606 15.0584 205.717 14.8144C205.813 14.811 205.895 14.7362 205.962 14.5897C206.028 14.4193 206.058 14.2382 206.051 14.0463C206.043 13.8304 206.072 13.6133 206.136 13.3949C206.224 13.1517 206.314 12.9805 206.406 12.8812C206.404 12.8092 206.423 12.6765 206.465 12.4829C206.53 12.2885 206.561 12.1553 206.559 12.0834C206.557 12.0354 206.578 11.9506 206.622 11.829C206.689 11.6826 206.721 11.5734 206.718 11.5014C207.076 10.7445 207.69 9.05406 208.559 6.43013C209.427 3.78222 209.856 2.31435 209.846 2.02653C209.839 1.83465 209.905 1.65224 210.043 1.47932C210.181 1.3064 210.346 1.21658 210.538 1.20988C210.607 1.13541 210.761 1.082 211 1.04964C211.238 0.993292 211.429 0.962606 211.573 0.957581L212.169 1.51313C212.441 1.74377 212.653 1.95252 212.803 2.13937C212.954 2.32623 213.034 2.55158 213.043 2.81542C213.058 3.24716 212.989 3.68182 212.837 4.11942C212.707 4.5322 212.297 5.5311 211.608 7.11611C211.565 7.23771 211.388 7.67615 211.078 8.43142C210.855 8.91951 210.745 9.19953 210.747 9.27148C210.75 9.34344 210.707 9.50102 210.619 9.74422C210.531 9.96344 210.455 10.1942 210.391 10.4366C210.213 10.8271 209.925 11.5215 209.528 12.52C209.153 13.4937 208.968 14.0285 208.971 14.1244C208.981 14.3883 208.927 14.5822 208.812 14.7063C208.74 14.7089 208.694 14.7705 208.674 14.8913C208.653 14.988 208.644 15.0604 208.645 15.1084C208.654 15.3482 208.484 15.9906 208.136 17.0353L207.849 18.09C207.448 19.665 207.164 20.8156 206.997 21.5418C206.854 22.2673 206.792 22.8818 206.809 23.3855C206.828 23.9132 206.759 24.3479 206.603 24.6895C206.446 25.0312 206.262 25.2537 206.05 25.3572ZM213.856 25.3368C211.122 25.4323 209.7 23.9209 209.591 20.8028C209.552 19.6755 209.783 18.3947 210.286 16.9603C210.811 15.501 211.474 14.1931 212.274 13.0365C213.097 11.855 213.922 11.0578 214.748 10.6447C215.195 10.3889 215.719 10.2506 216.318 10.2296C217.398 10.1919 218.341 10.3991 219.15 10.8512C219.981 11.2784 220.419 12.1397 220.465 13.4349C220.491 14.1784 220.267 15.0027 219.795 15.9078C219.322 16.8128 218.713 17.5906 217.967 18.241C217.244 18.8666 216.523 19.1919 215.804 19.2171C214.724 19.2548 213.801 18.9388 213.033 18.2692C212.654 19.0989 212.477 19.8856 212.503 20.6291C212.524 21.2288 212.612 21.694 212.768 22.0247C212.923 22.3315 213.264 22.4757 213.792 22.4573C214.295 22.4397 214.7 22.3535 215.007 22.1987C215.314 22.0439 215.596 21.8659 215.853 21.6648C216.11 21.4637 216.309 21.3127 216.45 21.2117L216.591 21.1348L216.555 21.136C216.978 20.8811 217.284 20.6903 217.472 20.5637C217.683 20.4122 217.859 20.31 218.001 20.257C218.361 20.2444 218.701 20.3407 219.02 20.5456C219.339 20.7506 219.504 21.009 219.515 21.3208C219.524 21.5607 219.322 21.964 218.909 22.5307C218.496 23.0735 218.065 23.4607 217.617 23.6925L217.193 23.9235L217.229 23.9222C217.023 24.2176 216.812 24.369 216.596 24.3766L216.308 24.3866C216.219 24.5818 215.902 24.785 215.357 24.9962C214.836 25.2065 214.336 25.32 213.856 25.3368ZM215.424 16.6007C216.096 16.5773 216.637 16.2702 217.049 15.6795C217.485 15.0879 217.692 14.5043 217.672 13.9286C217.663 13.6648 217.583 13.4275 217.431 13.2166C217.304 13.0049 217.132 12.9029 216.916 12.9104C216.508 12.9246 216.059 13.1324 215.569 13.5338C215.079 13.9351 214.653 14.4543 214.291 15.0914L213.849 15.8632C213.944 15.8119 214.015 15.7854 214.063 15.7837C214.255 15.777 214.402 15.856 214.503 16.0205C214.605 16.1851 214.718 16.3252 214.842 16.4409C214.966 16.5567 215.16 16.6099 215.424 16.6007ZM242.652 15.2537C242.665 15.6374 242.508 16.6275 242.179 18.224C242.139 18.4415 242.047 18.913 241.904 19.6384C241.785 20.339 241.719 20.8696 241.708 21.2303C241.717 21.4941 241.775 21.7682 241.881 22.0527C242.01 22.3124 242.075 22.4662 242.077 22.5142C242.085 22.754 241.986 22.9976 241.778 23.245C241.57 23.4684 241.298 23.586 240.962 23.5977C240.362 23.6187 239.838 23.3848 239.389 22.8962C238.938 22.3836 238.699 21.7076 238.669 20.8681C238.644 20.1485 238.861 18.7961 239.32 16.8109C239.359 16.5454 239.388 16.3522 239.408 16.2315C239.451 16.0859 239.471 15.9651 239.467 15.8692C239.463 15.7492 239.425 15.6905 239.353 15.6931C239.185 15.6989 238.95 15.8272 238.646 16.078C238.342 16.3047 238.015 16.5683 237.665 16.8687L236.792 17.6556C236.417 17.9089 235.636 18.5965 234.451 19.7186C234.287 19.8444 233.891 20.1944 233.263 20.7687C232.657 21.3182 232.307 21.5946 232.211 21.5979C232.115 21.6013 231.897 21.5368 231.556 21.4047C231.238 21.2477 230.931 21.0542 230.635 20.8244C230.363 20.5938 230.221 20.3226 230.21 20.0108C230.198 19.651 230.385 18.816 230.771 17.5057C231.158 16.1954 231.629 14.9061 232.185 13.638C232.25 13.4436 232.322 13.0809 232.399 12.5498C232.465 11.683 232.602 11.1379 232.81 10.9145C232.946 10.6696 233.146 10.5426 233.41 10.5333C233.889 10.5166 234.341 10.741 234.766 11.2064C235.214 11.6711 235.449 12.1912 235.469 12.7668C235.483 13.1746 235.382 13.7184 235.165 14.3984C234.972 15.0536 234.83 15.4428 234.738 15.566C234.808 15.5156 234.948 15.3906 235.157 15.1912C235.389 14.9669 235.693 14.7282 236.069 14.4749C236.862 13.8228 237.459 13.3817 237.86 13.1516C238.259 12.8975 238.541 12.7076 238.704 12.5818C238.798 12.5065 238.868 12.456 238.915 12.4304C238.985 12.3799 239.033 12.3542 239.056 12.3534C239.128 12.3269 239.258 12.2743 239.447 12.1956C239.66 12.0922 239.826 12.0383 239.946 12.0341C240.306 12.0216 240.682 12.1405 241.075 12.391C241.491 12.6166 241.704 12.8613 241.713 13.1251C241.716 13.1971 241.804 13.3261 241.979 13.5121C242.152 13.6741 242.304 13.885 242.433 14.1446C242.561 14.3803 242.634 14.75 242.652 15.2537ZM248.821 23.7916C248.534 23.8256 248.293 23.81 248.099 23.7447C247.929 23.7026 247.673 23.5795 247.33 23.3754C246.788 22.986 246.326 22.4978 245.946 21.9108C245.589 21.3229 245.415 20.8246 245.425 20.416C245.447 20.3432 245.455 20.2349 245.45 20.091C245.445 19.9471 245.429 19.8395 245.403 19.7684C245.375 19.6733 245.361 19.6138 245.36 19.5898C245.262 19.5212 245.2 19.4753 245.175 19.4522C245.174 19.4042 245.184 19.3558 245.206 19.307C245.253 19.2573 245.287 19.2081 245.309 19.1593C245.404 19.132 245.451 19.0823 245.448 19.0104C245.446 18.9384 245.419 18.8553 245.367 18.761C245.289 18.5717 245.31 18.1387 245.43 17.4621C245.574 16.7606 245.767 16.1055 246.01 15.4966C246.186 15.0342 246.465 14.4361 246.848 13.7023C247.254 12.9676 247.631 12.4022 247.977 12.0058C248.553 11.2893 249.026 10.7565 249.398 10.4073C249.794 10.0572 250.241 9.77748 250.738 9.56801C251.14 9.38587 251.557 9.28726 251.988 9.27219C252.564 9.25208 253.073 9.40239 253.517 9.72311C254.898 10.0591 255.751 10.7738 256.077 11.8671C256.239 12.3657 256.33 12.9269 256.352 13.5505C256.399 14.8937 256.031 16.3834 255.248 18.0198C254.824 18.9471 254.394 19.7186 253.96 20.3341C253.548 20.9249 253.039 21.4949 252.434 22.0444C252.015 22.4193 251.451 22.7752 250.743 23.1121C250.057 23.4242 249.417 23.6507 248.821 23.7916ZM251.761 18.2496C252.057 17.783 252.294 17.3424 252.472 16.928C252.649 16.5135 252.798 15.956 252.918 15.2554C252.999 14.8203 253.031 14.3869 253.016 13.9552C252.99 13.1876 252.867 12.7717 252.649 12.7072C252.478 12.6411 252.309 12.611 252.141 12.6169C251.637 12.6345 251.121 12.9767 250.592 13.6436C250.061 14.2625 249.674 14.8644 249.43 15.4492C249.187 16.0341 248.919 16.968 248.628 18.2509C248.545 18.6381 248.51 19.0235 248.524 19.4073C248.537 19.791 248.608 20.1007 248.736 20.3364C248.864 20.5481 249.048 20.6497 249.287 20.6414C249.959 20.6179 250.784 19.8207 251.761 18.2496ZM268.231 22.2852C268.041 22.3399 267.69 22.2441 267.177 21.9979C266.688 21.7508 266.294 21.4884 265.996 21.2106C265.516 20.5309 265.216 19.4848 265.094 18.0722C264.208 19.52 263.463 20.5186 262.858 21.068C262.252 21.6175 261.606 22.0123 260.918 22.2525C260.728 22.3311 260.438 22.2572 260.045 22.0308C259.677 21.8035 259.441 21.5836 259.338 21.3711C259.211 21.1594 259.093 20.8753 258.984 20.5189C258.875 20.1385 258.826 19.768 258.837 19.4073C258.641 17.9253 258.521 16.5366 258.476 15.2414C258.437 14.1381 258.471 13.4044 258.579 13.0405C258.551 12.9454 258.537 12.8618 258.534 12.7899L258.528 12.61C258.451 12.4686 258.404 12.17 258.388 11.7143C258.375 11.3305 258.386 10.9459 258.42 10.5605C258.454 10.1511 258.493 9.89755 258.538 9.79994C258.559 9.72714 258.723 9.61335 259.03 9.45855C259.361 9.30291 259.621 9.18576 259.81 9.1071C260.173 9.1665 260.369 9.30371 260.401 9.51874C260.45 9.54105 260.512 9.59892 260.587 9.69235C260.686 9.78494 260.784 9.81756 260.879 9.79023C260.977 9.85883 261.095 10.1429 261.233 10.6424C261.37 11.1419 261.447 11.6195 261.463 12.0752C261.444 12.22 261.438 12.4003 261.446 12.6162C261.476 12.8072 261.493 12.9507 261.497 13.0466C261.502 13.1906 261.493 13.2869 261.471 13.3357C261.488 13.8154 261.547 14.4738 261.648 15.3107C261.663 15.7425 261.662 16.0667 261.646 16.2834L261.645 17.2921C261.675 17.4591 261.694 17.6626 261.702 17.9024L261.712 18.1903C261.716 18.2862 261.729 18.3337 261.753 18.3329C261.777 18.3321 261.813 18.3068 261.859 18.2572C262.001 18.2042 262.186 17.9936 262.413 17.6255C262.664 17.2325 263.037 16.571 263.533 15.6412C263.714 15.3467 263.884 15.0525 264.042 14.7589C264.199 14.4412 264.311 14.2211 264.379 14.0987C264.627 13.6338 264.808 13.3032 264.921 13.1072C264.992 12.3843 265.094 11.5402 265.229 10.5749C265.437 10.3515 265.671 10.1632 265.93 10.0101C266.212 9.85613 266.474 9.77496 266.713 9.76659C267.001 9.75653 267.197 9.85777 267.3 10.0703C267.568 10.181 267.815 10.3765 268.041 10.6568C268.291 10.9362 268.396 11.1967 268.357 11.4383L267.885 13.3999C267.778 13.7639 267.699 14.2589 267.649 14.8851C267.599 15.5112 267.583 16.1121 267.604 16.6877C267.619 17.1435 267.683 17.5855 267.794 18.0139C267.852 18.3001 267.941 18.441 268.061 18.4368C268.229 18.431 268.452 18.2911 268.731 18.0172C269.216 17.4719 269.685 16.8072 270.138 16.0229C270.615 15.2378 270.85 14.7493 270.843 14.5574C270.836 14.3655 270.877 14.1599 270.966 13.9407C271.053 13.6975 271.167 13.5134 271.307 13.3885C271.398 13.2652 271.465 13.1068 271.506 12.9132C271.547 12.7197 271.59 12.5621 271.634 12.4405C271.656 12.3917 271.678 12.3309 271.699 12.2581C271.744 12.1605 271.788 12.0509 271.832 11.9293L271.792 11.8226C271.788 11.7027 271.867 11.5678 272.03 11.418C272.192 11.2443 272.284 11.121 272.306 11.0482C272.321 10.8075 272.458 10.5986 272.716 10.4215C272.974 10.2444 273.247 10.1508 273.535 10.1408C273.823 10.1307 274.066 10.2183 274.264 10.4035C274.487 10.5878 274.617 10.8714 274.654 11.2544C274.674 11.83 274.569 12.6022 274.339 13.5708C274.132 14.5146 273.8 15.3307 273.344 16.019C273.299 16.1166 273.233 16.287 273.145 16.5302C273.057 16.7495 272.899 17.0431 272.672 17.4113C272.468 17.7546 272.159 18.2097 271.747 18.7764C271.404 19.2687 271.07 19.6646 270.744 19.9641C270.285 20.5805 269.823 21.113 269.359 21.5615C268.894 22.0099 268.518 22.2512 268.231 22.2852ZM286.046 16.2002C286.212 15.6733 286.773 15.3804 287.3 15.546C290.38 16.5139 294.782 18.9416 298.118 23.1129C300.973 26.6822 303.029 31.5086 302.821 37.7157L305.668 33.4453C305.974 32.9858 306.595 32.8616 307.055 33.1679C307.514 33.4743 307.638 34.0952 307.332 34.5547L302.332 42.0547C302.151 42.3263 301.849 42.4924 301.522 42.4997C301.196 42.5071 300.887 42.3546 300.694 42.0914L295.194 34.5914C294.867 34.146 294.963 33.5202 295.409 33.1936C295.854 32.867 296.48 32.9633 296.806 33.4086L300.757 38.7957C301.259 32.5187 299.296 27.7872 296.557 24.3621C293.501 20.5418 289.454 18.3194 286.7 17.454C286.173 17.2884 285.88 16.727 286.046 16.2002Z" fill="black"/>
</svg>
